<svg width="1135" height="823" viewBox="0 0 1135 823" fill="none" xmlns="http://www.w3.org/2000/svg">
<g id="roc 1">
<g id="undraw Outer space drqu 1">
<g id="Background">
<path id="Vector" d="M986.004 711.975C976.856 712.771 967.652 712.646 958.528 711.604C858.226 700.393 721.64 703.582 610.297 773.325C456.313 869.761 214.99 787.203 108.538 742.289C27.201 707.984 -15.0247 623.962 10.3385 545.095C10.6956 543.982 11.0626 542.868 11.4495 541.755C27.4094 494.886 58.9125 458.205 97.9245 438.761C131.927 421.814 181.573 386.427 203.662 318.429C212.788 290.351 225.306 263.938 241.563 240.915C285.098 179.255 376.235 87.4311 532.978 88.0027C560.459 88.1372 587.735 92.8046 613.729 101.821C670.992 121.545 722.711 161.646 762.149 217.239C787.314 252.697 825.027 285.658 879.016 288.346C953.946 292.096 1025.45 327.363 1079.1 390.127C1080.64 391.932 1082.17 393.747 1083.7 395.582C1179.21 510.609 1112.87 700.764 986.004 711.975Z" fill="#6C63FF"/>
</g>
<g id="Elements">
<path id="Vector 2" opacity="0.2" d="M281.752 709.422C288.972 709.422 294.825 703.505 294.825 696.206C294.825 688.906 288.972 682.989 281.752 682.989C274.532 682.989 268.678 688.906 268.678 696.206C268.678 703.505 274.532 709.422 281.752 709.422Z" fill="black"/>
<path id="Vector 3" d="M208.003 431.405C210.797 431.405 213.062 429.115 213.062 426.29C213.062 423.466 210.797 421.176 208.003 421.176C205.209 421.176 202.944 423.466 202.944 426.29C202.944 429.115 205.209 431.405 208.003 431.405Z" fill="white"/>
<path id="Vector 4" d="M569.059 728.224C571.853 728.224 574.118 725.934 574.118 723.11C574.118 720.285 571.853 717.996 569.059 717.996C566.266 717.996 564.001 720.285 564.001 723.11C564.001 725.934 566.266 728.224 569.059 728.224Z" fill="white"/>
<path id="Vector 5" d="M355.798 752.04C357.359 752.04 358.625 750.76 358.625 749.182C358.625 747.603 357.359 746.324 355.798 746.324C354.237 746.324 352.971 747.603 352.971 749.182C352.971 750.76 354.237 752.04 355.798 752.04Z" fill="white"/>
<path id="Vector 6" d="M981.695 613.658C983.257 613.658 984.522 612.378 984.522 610.8C984.522 609.221 983.257 607.942 981.695 607.942C980.134 607.942 978.868 609.221 978.868 610.8C978.868 612.378 980.134 613.658 981.695 613.658Z" fill="white"/>
<path id="Vector 7" d="M820.014 356.949C821.575 356.949 822.84 355.669 822.84 354.091C822.84 352.513 821.575 351.233 820.014 351.233C818.452 351.233 817.187 352.513 817.187 354.091C817.187 355.669 818.452 356.949 820.014 356.949Z" fill="white"/>
<path id="Vector 8" d="M1049.15 482.295C1050.71 482.295 1051.97 481.016 1051.97 479.437C1051.97 477.859 1050.71 476.579 1049.15 476.579C1047.58 476.579 1046.32 477.859 1046.32 479.437C1046.32 481.016 1047.58 482.295 1049.15 482.295Z" fill="white"/>
<path id="Vector 9" d="M297.275 263.942C300.069 263.942 302.334 261.653 302.334 258.828C302.334 256.004 300.069 253.714 297.275 253.714C294.481 253.714 292.217 256.004 292.217 258.828C292.217 261.653 294.481 263.942 297.275 263.942Z" fill="white"/>
<path id="Vector 10" d="M158.239 604.853H153.736V600.301H151.9V604.853H147.397V606.708H151.9V611.251H153.736V606.708H158.239V604.853Z" fill="white"/>
<path id="Vector 11" d="M271.317 602.848H266.814V598.295H264.979V602.848H260.475V604.703H264.979V609.246H266.814V604.703H271.317V602.848Z" fill="white"/>
<path id="Vector 12" d="M432.999 695.103H428.495V690.55H426.66V695.103H422.157V696.958H426.66V701.5H428.495V696.958H432.999V695.103Z" fill="white"/>
<path id="Vector 13" d="M658.193 142.076H656.14V140H655.306V142.076H653.253V142.918H655.306V144.994H656.14V142.918H658.193V142.076Z" fill="white"/>
<path id="Vector 14" d="M950.807 332.602H948.754V330.526H947.921V332.602H945.867V333.444H947.921V335.52H948.754V333.444H950.807V332.602Z" fill="white"/>
<path id="Vector 15" d="M778.214 456.945H776.161V454.869H775.328V456.945H773.275V457.787H775.328V459.863H776.161V457.787H778.214V456.945Z" fill="white"/>
<path id="Vector 16" d="M75.9397 535.161H73.8865V533.085H73.0533V535.161H71V536.003H73.0533V538.079H73.8865V536.003H75.9397V535.161Z" fill="white"/>
<path id="Vector 17" d="M160.252 705.632H158.199V703.556H157.366V705.632H155.313V706.474H157.366V708.55H158.199V706.474H160.252V705.632Z" fill="white"/>
<path id="Vector 18" d="M425.093 167.145H423.04V165.069H422.207V167.145H420.153V167.987H422.207V170.063H423.04V167.987H425.093V167.145Z" fill="white"/>
<path id="Vector 19" d="M300.112 466.973H298.059V464.897H297.226V466.973H295.172V467.815H297.226V469.891H298.059V467.815H300.112V466.973Z" fill="white"/>
<path id="Vector 20" d="M326.894 380.735H324.841V378.659H324.007V380.735H321.954V381.577H324.007V383.653H324.841V381.577H326.894V380.735Z" fill="white"/>
<g id="Group" opacity="0.7">
<path id="Vector 21" opacity="0.7" d="M748.636 579.744C754.946 579.744 760.062 574.572 760.062 568.192C760.062 561.812 754.946 556.64 748.636 556.64C742.325 556.64 737.209 561.812 737.209 568.192C737.209 574.572 742.325 579.744 748.636 579.744Z" fill="url(#paint0_linear)"/>
</g>
<path id="Vector 22" opacity="0.2" d="M748.636 578.892C754.481 578.892 759.219 574.101 759.219 568.192C759.219 562.283 754.481 557.493 748.636 557.493C742.79 557.493 738.052 562.283 738.052 568.192C738.052 574.101 742.79 578.892 748.636 578.892Z" fill="black"/>
<path id="Vector 23" opacity="0.2" d="M777.133 655.473C783.669 655.473 788.967 650.117 788.967 643.51C788.967 636.903 783.669 631.547 777.133 631.547C770.598 631.547 765.3 636.903 765.3 643.51C765.3 650.117 770.598 655.473 777.133 655.473Z" fill="black"/>
<g id="Group 2" opacity="0.1">
<path id="Vector 24" opacity="0.1" d="M418.904 580.456H436.371L435.201 572.384H420.074L418.904 580.456Z" fill="black"/>
</g>
<g id="Group 3" opacity="0.1">
<path id="Vector 25" opacity="0.1" d="M620.609 580.456H638.087L636.916 572.384H621.78L620.609 580.456Z" fill="black"/>
</g>
<g id="Group 4" opacity="0.1">
<path id="Vector 26" opacity="0.1" d="M495.38 580.456H512.858L511.687 572.384H496.551L495.38 580.456Z" fill="black"/>
</g>
<path id="Vector 27" d="M761.421 323.196C758.667 319.539 755.221 316.471 751.284 314.171C746.761 311.534 741.698 309.984 736.487 309.641C731.277 309.298 726.058 310.171 721.235 312.192C716.411 314.213 712.112 317.329 708.669 321.298C705.227 325.267 702.734 329.983 701.382 335.082C700.03 340.181 699.857 345.526 700.875 350.703C701.892 355.88 704.074 360.752 707.251 364.941C710.429 369.13 714.516 372.524 719.198 374.861C723.88 377.198 729.031 378.415 734.253 378.418C734.977 378.418 735.701 378.418 736.405 378.338C742.542 377.947 748.459 375.882 753.529 372.364C758.598 368.845 762.63 364.005 765.197 358.356C767.763 352.707 768.769 346.461 768.106 340.28C767.443 334.1 765.136 328.217 761.431 323.256L761.421 323.196Z" fill="url(#paint1_linear)"/>
<path id="Vector 28" opacity="0.2" d="M766.43 343.933C766.429 352.206 763.311 360.169 757.709 366.2C752.108 372.232 744.444 375.88 736.276 376.403C735.612 376.403 734.927 376.473 734.243 376.473C729.302 376.476 724.428 375.329 719.996 373.122C715.564 370.915 711.694 367.707 708.685 363.745C705.676 359.784 703.61 355.175 702.646 350.277C701.681 345.378 701.845 340.321 703.124 335.497C704.403 330.673 706.762 326.211 710.021 322.456C713.279 318.702 717.348 315.756 721.913 313.846C726.478 311.937 731.417 311.115 736.346 311.444C741.276 311.773 746.065 313.245 750.342 315.745C754.07 317.932 757.327 320.851 759.923 324.329C764.153 329.969 766.438 336.855 766.43 343.933Z" fill="black"/>
<path id="Vector 29" opacity="0.1" d="M726.317 323.286C724.653 324.01 723.048 324.865 721.517 325.843C720.494 326.408 719.615 327.204 718.948 328.169C718.617 328.656 718.435 329.23 718.424 329.82C718.413 330.41 718.575 330.991 718.888 331.489C719.672 332.572 721.179 332.732 722.508 332.812C723.904 332.992 725.322 332.848 726.655 332.391C727.554 331.941 728.373 331.341 729.075 330.616L731.842 328.079C732.834 327.197 733.826 325.983 733.439 324.74C733.211 324.296 732.876 323.917 732.465 323.636C732.055 323.356 731.582 323.184 731.089 323.136C728.703 322.666 726.23 323.105 724.145 324.369" fill="black"/>
<g id="Group 5" opacity="0.1">
<path id="Vector 30" opacity="0.1" d="M714.762 358.493C715.698 358.493 716.458 357.726 716.458 356.778C716.458 355.831 715.698 355.064 714.762 355.064C713.825 355.064 713.065 355.831 713.065 356.778C713.065 357.726 713.825 358.493 714.762 358.493Z" fill="black"/>
</g>
<g id="Group 6" opacity="0.1">
<path id="Vector 31" opacity="0.1" d="M749.201 352.206C752.63 352.206 755.41 349.395 755.41 345.929C755.41 342.462 752.63 339.651 749.201 339.651C745.771 339.651 742.992 342.462 742.992 345.929C742.992 349.395 745.771 352.206 749.201 352.206Z" fill="black"/>
</g>
<g id="Group 7" opacity="0.1">
<path id="Vector 32" opacity="0.1" d="M759.983 324.329C759.965 325.97 759.481 327.571 758.588 328.942C757.695 330.313 756.432 331.396 754.948 332.061C753.464 332.727 751.822 332.947 750.217 332.696C748.613 332.445 747.114 331.734 745.898 330.646C744.682 329.558 743.801 328.14 743.36 326.56C742.919 324.981 742.936 323.306 743.41 321.736C743.883 320.166 744.793 318.767 746.031 317.705C747.268 316.643 748.782 315.962 750.391 315.745C754.123 317.931 757.384 320.849 759.983 324.329Z" fill="black"/>
</g>
<g id="Group 8" opacity="0.1">
<path id="Vector 33" opacity="0.1" d="M760.558 362.665C757.789 366.649 754.169 369.953 749.966 372.331C745.763 374.709 741.084 376.101 736.276 376.403C736.276 375.951 736.217 375.5 736.217 375.039C736.219 372.183 737.006 369.384 738.49 366.954C739.973 364.524 742.095 362.558 744.619 361.275C747.142 359.992 749.969 359.443 752.783 359.688C755.598 359.933 758.289 360.964 760.558 362.665Z" fill="black"/>
</g>
<path id="Vector 34" d="M321.726 508.959C319.805 506.391 317.398 504.237 314.644 502.621C311.483 500.746 307.937 499.635 304.281 499.373C300.626 499.111 296.96 499.705 293.569 501.11C290.178 502.515 287.154 504.693 284.732 507.473C282.31 510.253 280.556 513.561 279.605 517.139C278.655 520.717 278.535 524.468 279.254 528.101C279.973 531.734 281.512 535.15 283.751 538.083C285.99 541.015 288.868 543.386 292.162 545.01C295.456 546.634 299.076 547.467 302.741 547.445C303.247 547.445 303.733 547.445 304.248 547.395C308.522 547.104 312.639 545.653 316.166 543.194C319.692 540.735 322.496 537.36 324.284 533.425C326.071 529.49 326.775 525.14 326.322 520.834C325.868 516.528 324.273 512.425 321.706 508.959H321.726Z" fill="url(#paint2_linear)"/>
<path id="Vector 35" opacity="0.2" d="M325.217 523.429C325.216 529.201 323.04 534.755 319.132 538.963C315.224 543.171 309.877 545.716 304.179 546.081C303.713 546.081 303.187 546.081 302.761 546.081C299.316 546.08 295.919 545.279 292.83 543.738C289.741 542.198 287.045 539.959 284.948 537.197C282.852 534.434 281.412 531.221 280.74 527.806C280.069 524.392 280.183 520.866 281.074 517.503C281.966 514.14 283.61 511.029 285.881 508.411C288.151 505.793 290.987 503.738 294.169 502.405C297.351 501.072 300.793 500.497 304.23 500.724C307.667 500.951 311.006 501.974 313.989 503.714C316.594 505.246 318.867 507.293 320.674 509.731C323.632 513.671 325.228 518.483 325.217 523.429Z" fill="black"/>
<path id="Vector 36" opacity="0.1" d="M297.226 509.029C296.066 509.528 294.948 510.122 293.883 510.804C293.173 511.204 292.56 511.759 292.088 512.428C291.867 512.773 291.75 513.176 291.75 513.586C291.75 513.997 291.867 514.399 292.088 514.745C292.417 515.073 292.812 515.326 293.247 515.485C293.682 515.644 294.146 515.706 294.607 515.667C295.582 515.794 296.572 515.695 297.503 515.376C298.134 515.061 298.708 514.641 299.2 514.133L301.124 512.368C301.798 511.746 302.532 510.904 302.235 510.042C302.083 509.726 301.852 509.456 301.565 509.259C301.278 509.062 300.944 508.945 300.598 508.918C298.938 508.59 297.216 508.897 295.768 509.781" fill="black"/>
<g id="Group 9" opacity="0.1">
<path id="Vector 37" opacity="0.1" d="M289.161 533.577C289.813 533.577 290.342 533.042 290.342 532.383C290.342 531.724 289.813 531.19 289.161 531.19C288.509 531.19 287.981 531.724 287.981 532.383C287.981 533.042 288.509 533.577 289.161 533.577Z" fill="black"/>
</g>
<g id="Group 10" opacity="0.1">
<path id="Vector 38" opacity="0.1" d="M313.195 529.205C315.589 529.205 317.53 527.243 317.53 524.822C317.53 522.402 315.589 520.44 313.195 520.44C310.802 520.44 308.861 522.402 308.861 524.822C308.861 527.243 310.802 529.205 313.195 529.205Z" fill="black"/>
</g>
<g id="Group 11" opacity="0.1">
<path id="Vector 39" opacity="0.1" d="M320.684 509.751C320.675 510.907 320.337 512.035 319.71 513.002C319.084 513.969 318.195 514.732 317.15 515.202C316.105 515.671 314.949 515.826 313.819 515.649C312.689 515.471 311.634 514.968 310.779 514.2C309.925 513.433 309.307 512.432 309 511.319C308.693 510.205 308.71 509.026 309.049 507.922C309.387 506.818 310.033 505.836 310.909 505.093C311.785 504.351 312.855 503.879 313.989 503.734C316.597 505.265 318.874 507.312 320.684 509.751Z" fill="black"/>
</g>
<g id="Group 12" opacity="0.1">
<path id="Vector 40" opacity="0.1" d="M321.121 536.495C319.189 539.275 316.663 541.58 313.73 543.239C310.798 544.899 307.533 545.87 304.179 546.081C304.179 545.77 304.179 545.449 304.179 545.078C304.181 543.086 304.73 541.133 305.765 539.438C306.799 537.743 308.28 536.371 310.04 535.476C311.801 534.581 313.773 534.197 315.736 534.368C317.7 534.539 319.577 535.258 321.161 536.445L321.121 536.495Z" fill="black"/>
</g>
<path id="Vector 41" d="M953.714 442.264C954.722 442.264 955.539 441.438 955.539 440.419C955.539 439.4 954.722 438.574 953.714 438.574C952.706 438.574 951.888 439.4 951.888 440.419C951.888 441.438 952.706 442.264 953.714 442.264Z" fill="white"/>
</g>
<g id="Rocket">
<path id="Vector_2" d="M443.329 746H442.671C439.576 746 436.607 745.056 434.418 743.376C432.23 741.696 431 739.417 431 737.04V696H455V737.04C455 739.417 453.77 741.696 451.582 743.376C449.393 745.056 446.424 746 443.329 746Z" fill="url(#paint3_linear)"/>
<path id="Vector_3" d="M646.329 743H645.671C642.576 743 639.607 742.113 637.418 740.533C635.23 738.954 634 736.812 634 734.578V696H658V734.578C658 736.812 656.77 738.954 654.582 740.533C652.393 742.113 649.424 743 646.329 743Z" fill="url(#paint4_linear)"/>
<path id="Vector_4" d="M568.19 760.4H567.54C564.479 760.4 561.544 759.184 559.38 757.02C557.216 754.856 556 751.921 556 748.86V696H579.73V748.86C579.73 751.921 578.514 754.856 576.35 757.02C574.186 759.184 571.251 760.4 568.19 760.4Z" fill="url(#paint5_linear)"/>
<path id="Vector_5" d="M520.19 760.4H519.54C516.479 760.4 513.544 759.184 511.38 757.02C509.216 754.856 508 751.921 508 748.86V696H531.73V748.86C531.73 751.921 530.514 754.856 528.35 757.02C526.186 759.184 523.251 760.4 520.19 760.4Z" fill="url(#paint6_linear)"/>
<g id="Rocket_2">
<path id="Vector 42" d="M454.573 696.496H430.847L435.086 667.375H450.334L454.573 696.496Z" fill="#535461"/>
<path id="Vector 43" d="M657.891 696.496H634.175L638.404 667.375H653.662L657.891 696.496Z" fill="#535461"/>
<path id="Vector 44" d="M531.661 696.496H507.945L512.174 667.375H527.432L531.661 696.496Z" fill="#535461"/>
<path id="Vector 45" d="M579.953 696.496H556.237L560.467 667.375H575.714L579.953 696.496Z" fill="#535461"/>
<g id="Group 13" opacity="0.1">
<path id="Vector 46" opacity="0.1" d="M559.287 678.939H576.904L575.714 670.802H560.466L559.287 678.939Z" fill="black"/>
</g>
<path id="Vector 47" d="M624.006 426.718H454.573V433.571H624.006V426.718Z" fill="#535461"/>
<path id="Vector 48" d="M650.192 318.483C649.297 317.484 648.205 316.685 646.986 316.138C645.766 315.591 644.447 315.308 643.113 315.308C641.78 315.308 640.461 315.591 639.241 316.138C638.022 316.685 636.93 317.484 636.035 318.483C631.105 323.8 626.646 330.825 622.757 338.295C611.22 360.773 605.253 385.747 605.369 411.071V674.724H680.358V409.959C680.451 385.336 674.774 361.04 663.79 339.063C658.581 328.793 653.842 322.365 650.192 318.483Z" fill="#E0E0E0"/>
<path id="Vector 49" d="M435.156 318.483C436.052 317.484 437.144 316.685 438.363 316.138C439.582 315.591 440.901 315.308 442.235 315.308C443.569 315.308 444.888 315.591 446.107 316.138C447.327 316.685 448.419 317.484 449.314 318.483C454.253 323.8 458.703 330.825 462.602 338.295C474.135 360.775 480.101 385.748 479.989 411.071V674.724H405.001V409.959C404.907 385.336 410.585 361.04 421.569 339.063C426.768 328.793 431.507 322.365 435.156 318.483Z" fill="#E0E0E0"/>
<path id="Vector 50" d="M405.431 415.579L423.228 415.67V437.847H405.431V415.579Z" fill="#535461"/>
<path id="Vector 51" d="M462.192 415.579L479.989 415.67V437.847H462.192V415.579Z" fill="#535461"/>
<path id="Vector 52" d="M605.369 415.579L623.157 415.67V437.847H605.369V415.579Z" fill="#535461"/>
<path id="Vector 53" d="M662.13 415.579L679.918 415.67V437.847H662.13V415.579Z" fill="#535461"/>
<path id="Vector 54" d="M552.088 111.758C550.849 110.268 549.303 109.07 547.557 108.248C545.812 107.426 543.91 107 541.984 107C540.059 107 538.157 107.426 536.412 108.248C534.666 109.07 533.12 110.268 531.881 111.758C524.882 119.723 518.483 130.245 512.884 141.445C496.427 174.639 488.068 212.321 488.068 250.528V673.652H595.051V248.83C595.051 211.704 587.052 175.043 571.415 142.597C564.066 127.203 557.297 117.631 552.088 111.758Z" fill="#EEEEEE"/>
<path id="Vector 55" d="M557.787 158.759H523.952C517.878 158.759 512.954 163.737 512.954 169.878V173.507C512.954 179.647 517.878 184.625 523.952 184.625H557.787C563.861 184.625 568.785 179.647 568.785 173.507V169.878C568.785 163.737 563.861 158.759 557.787 158.759Z" fill="#535461"/>
</g>
</g>
</g>
</g>
<defs>
<linearGradient id="paint0_linear" x1="17835.2" y1="13660.2" x2="17835.2" y2="13128.1" gradientUnits="userSpaceOnUse">
<stop stop-color="#808080" stop-opacity="0.25"/>
<stop offset="0.54" stop-color="#808080" stop-opacity="0.12"/>
<stop offset="1" stop-color="#808080" stop-opacity="0.1"/>
</linearGradient>
<linearGradient id="paint1_linear" x1="52854.9" y1="28485.1" x2="52854.9" y2="23757.8" gradientUnits="userSpaceOnUse">
<stop stop-color="#808080" stop-opacity="0.25"/>
<stop offset="0.54" stop-color="#808080" stop-opacity="0.12"/>
<stop offset="1" stop-color="#808080" stop-opacity="0.1"/>
</linearGradient>
<linearGradient id="paint2_linear" x1="16058" y1="28312.9" x2="16058" y2="26006.8" gradientUnits="userSpaceOnUse">
<stop stop-color="#808080" stop-opacity="0.25"/>
<stop offset="0.54" stop-color="#808080" stop-opacity="0.12"/>
<stop offset="1" stop-color="#808080" stop-opacity="0.1"/>
</linearGradient>
<linearGradient id="paint3_linear" x1="443.005" y1="696" x2="443.005" y2="746" gradientUnits="userSpaceOnUse">
<stop stop-color="#E0E0E0"/>
<stop offset="0.31" stop-color="#FCCC63"/>
<stop offset="0.77" stop-color="#F55F44"/>
</linearGradient>
<linearGradient id="paint4_linear" x1="646.005" y1="696" x2="646.005" y2="743" gradientUnits="userSpaceOnUse">
<stop stop-color="#E0E0E0"/>
<stop offset="0.31" stop-color="#FCCC63"/>
<stop offset="0.77" stop-color="#F55F44"/>
</linearGradient>
<linearGradient id="paint5_linear" x1="567.87" y1="696" x2="567.87" y2="760.4" gradientUnits="userSpaceOnUse">
<stop stop-color="#E0E0E0"/>
<stop offset="0.31" stop-color="#FCCC63"/>
<stop offset="0.77" stop-color="#F55F44"/>
</linearGradient>
<linearGradient id="paint6_linear" x1="519.87" y1="696" x2="519.87" y2="760.4" gradientUnits="userSpaceOnUse">
<stop stop-color="#E0E0E0"/>
<stop offset="0.31" stop-color="#FCCC63"/>
<stop offset="0.77" stop-color="#F55F44"/>
</linearGradient>
</defs>
</svg>
